<svg xmlns="http://www.w3.org/2000/svg" width="4000" height="2668" viewBox="0 0 4000 2668">
  <defs>
    <style>
      .cls-1 {
        font-size: 188.708px;
        font-family: Harabara;
      }

      .cls-1, .cls-5 {
        fill: #02a1db;
      }

      .cls-2, .cls-4 {
        fill: #6bb241;
      }

      .cls-3 {
        font-size: 68.533px;
        fill: #6a6a6a;
        font-family: HelveticaCE-CondBold, HelveticaCE;
      }

      .cls-4, .cls-5 {
        fill-rule: evenodd;
      }
    </style>
  </defs>
  <text id="Syncbills_copy_4" data-name="Syncbills copy 4" class="cls-1" transform="translate(1580.904 1452.489) scale(2.325 2.32)">Sync<tspan class="cls-2">bills</tspan></text>
  <text id="Accounting_Straight_from_Your_Inbox_copy_5" data-name="Accounting Straight from Your Inbox copy 5" class="cls-3" transform="translate(2000.576 1536.861) scale(1.096 1.079)">Accounting Straight from Your Inbox</text>
  <path id="Shape_2_copy_5" data-name="Shape 2 copy 5" class="cls-4" d="M1485.67,1376.61q-24.48,51.87-67.29,85.42-26.025,21.375-55.06,32.03-35.205,10.7-62.7,10.68-36.7,0-56.59-15.25-19.89-16.77-19.88-45.77-18.36,28.995-45.88,45.77-26.025,13.725-61.18,13.73-55.05,0-85.64-30.51-30.615-32.04-30.59-91.53,0-85.41,50.47-143.39,48.93-57.945,123.88-57.96,29.025,0,48.94,10.68a115.725,115.725,0,0,1,35.17,35.08l19.89-35.08q48.915,0,49.7,24.4,0.75,24.42-.77,30.51l-38.23,160.17a16.866,16.866,0,0,0-1.53,7.63,13.434,13.434,0,0,0-1.53,6.1c0,9.15,3.06,15.78,9.18,19.83q7.635,6.105,26,6.1,10.68,0,29.05-7.63,18.36-9.15,29.06-19.83,30.585-30.495,45.88-67.12a212.624,212.624,0,0,0,16.83-83.89q0-85.41-67.3-141.87-53.685-43.8-130.72-52.61l-0.51,43.63-124.65-76.16,126.29-64.6-0.44,37.433a428.886,428.886,0,0,1,74.98,14.69q51.975,16.8,91.76,45.76,47.385,38.145,73.41,86.95a251.139,251.139,0,0,1,24.47,108.3Q1510.14,1326.29,1485.67,1376.61Zm-264.58-129.66q-15.3-15.24-41.29-15.26-42.84,0-71.88,44.24-30.615,45.765-30.59,106.78,0,30.525,15.29,50.34,13.77,16.8,41.3,16.78,29.025,0,55.05-22.88,22.95-18.315,33.65-57.97l19.88-77.8Q1236.365,1262.23,1221.09,1246.95Zm-284.46-25.94q-33.658,59.505-33.646,134.24,0,109.83,74.938,175.42,59.442,51.885,153.048,61.66l0.56-45.23,125.85,67.55-127.58,73.22,0.48-39.07a446.589,446.589,0,0,1-78.95-14.4q-59.64-18.3-103.995-51.86-56.6-44.265-82.585-99.15-25.988-56.43-26-128.14,0-56.415,16.823-114.4,18.353-56.43,56.586-97.63,48.927-62.535,126.94-99.15a405.409,405.409,0,0,1,43.48-15.76l14.65,57.7a282.293,282.293,0,0,0-67.31,32.8Q970.276,1156.955,936.63,1221.01Z"/>
  <path id="Shape_2_copy_10" data-name="Shape 2 copy 10" class="cls-5" d="M1485.67,1376.61q-24.48,51.87-67.29,85.42-26.025,21.375-55.06,32.03-35.205,10.7-62.7,10.68-36.7,0-56.59-15.25-19.89-16.77-19.88-45.77-18.36,28.995-45.88,45.77-26.025,13.725-61.18,13.73-55.05,0-85.64-30.51-30.615-32.04-30.59-91.53,0-85.41,50.47-143.39,48.93-57.945,123.88-57.96,29.025,0,48.94,10.68a115.725,115.725,0,0,1,35.17,35.08l19.89-35.08q48.915,0,49.7,24.4,0.75,24.42-.77,30.51l-38.23,160.17a16.866,16.866,0,0,0-1.53,7.63,13.434,13.434,0,0,0-1.53,6.1c0,9.15,3.06,15.78,9.18,19.83q7.635,6.105,26,6.1,10.68,0,29.05-7.63,18.36-9.15,29.06-19.83,30.585-30.495,45.88-67.12a212.624,212.624,0,0,0,16.83-83.89q0-85.41-67.3-141.87-53.685-43.8-130.72-52.61l-0.51,43.63-124.65-76.16,126.29-64.6-0.44,37.433a428.886,428.886,0,0,1,74.98,14.69q51.975,16.8,91.76,45.76,47.385,38.145,73.41,86.95a251.139,251.139,0,0,1,24.47,108.3Q1510.14,1326.29,1485.67,1376.61Zm-264.58-129.66q-15.3-15.24-41.29-15.26-42.84,0-71.88,44.24-30.615,45.765-30.59,106.78,0,30.525,15.29,50.34,13.77,16.8,41.3,16.78,29.025,0,55.05-22.88,22.95-18.315,33.65-57.97l19.88-77.8Q1236.365,1262.23,1221.09,1246.95Z"/>
</svg>
