<svg id="Layer_1" data-name="Layer 1" xmlns="http://www.w3.org/2000/svg" viewBox="0 0 298.25 75"><g id="Syncbills_copy_4" data-name="Syncbills copy 4" style="isolation:isolate"><text transform="translate(89.49 50.23) scale(1.15 1)" font-size="46.07" fill="#02a1db" font-family="ArialMT, Arial" style="isolation:isolate">Sync</text><text transform="translate(207.11 50.23) scale(1.15 1)" font-size="46.07" fill="#6bb241" font-family="ArialMT, Arial" style="isolation:isolate">bills</text></g><text id="Accounting_Straight_from_Your_Inbox_copy_5" data-name="Accounting Straight from Your Inbox copy 5" transform="translate(140.1 59.11) scale(1.16 1)" font-size="7.78" fill="#6a6a6a" font-family="Helvetica" style="isolation:isolate">Accounting Straight from<tspan x="85.21" y="0" letter-spacing="-0.02em"> </tspan><tspan x="87.23" y="0" letter-spacing="-0.09em">Y</tspan><tspan x="91.71" y="0">our Inbox</tspan></text><path id="Shape_2_copy_5" data-name="Shape 2 copy 5" d="M79.76,42.24a25.38,25.38,0,0,1-8.12,9A23.51,23.51,0,0,1,65,54.6a29.49,29.49,0,0,1-7.56,1.13,12.21,12.21,0,0,1-6.82-1.61,5.65,5.65,0,0,1-2.4-4.81,16.09,16.09,0,0,1-5.53,4.81,17.38,17.38,0,0,1-7.38,1.45q-6.63,0-10.33-3.21Q21.29,49,21.29,42.73a20.49,20.49,0,0,1,6.09-15.09,19.88,19.88,0,0,1,14.94-6.1,13.86,13.86,0,0,1,5.9,1.12,13.31,13.31,0,0,1,4.24,3.69l2.4-3.69q5.89,0,6,2.57a14.57,14.57,0,0,1-.09,3.21L56.15,45.29a1.55,1.55,0,0,0-.18.81,1.25,1.25,0,0,0-.19.64,2.24,2.24,0,0,0,1.11,2.09,5.76,5.76,0,0,0,3.13.64,11.22,11.22,0,0,0,3.51-.8A13.87,13.87,0,0,0,67,46.58a22,22,0,0,0,5.53-7.06,19.86,19.86,0,0,0,2-8.83q0-9-8.11-14.93a32.13,32.13,0,0,0-15.77-5.54l-.06,4.59-15-8L50.85,0,50.8,3.94a58.49,58.49,0,0,1,9,1.55A41.14,41.14,0,0,1,70.9,10.3a31.3,31.3,0,0,1,8.86,9.15,23.76,23.76,0,0,1,2.95,11.4A23.08,23.08,0,0,1,79.76,42.24ZM47.85,28.6a7.38,7.38,0,0,0-5-1.61q-5.16,0-8.67,4.66a17.89,17.89,0,0,0-3.68,11.24,7.68,7.68,0,0,0,1.84,5.29,6.52,6.52,0,0,0,5,1.77A10.71,10.71,0,0,0,44,47.54,11.12,11.12,0,0,0,48,41.44l2.39-8.19a8.64,8.64,0,0,0-2.58-4.65Zm-34.3-2.73A25.38,25.38,0,0,0,9.49,40a22,22,0,0,0,9,18.46Q25.7,63.92,37,65l.07-4.76,15.18,7.1L36.84,75l.06-4.11a60.9,60.9,0,0,1-9.52-1.52,42.68,42.68,0,0,1-12.54-5.45,30.62,30.62,0,0,1-10-10.44A28.43,28.43,0,0,1,1.75,40a37.8,37.8,0,0,1,2-12A26.72,26.72,0,0,1,10.6,17.68,41.05,41.05,0,0,1,25.91,7.25q2.57-1,5.24-1.66l1.77,6.07a36.83,36.83,0,0,0-8.12,3.46A29.69,29.69,0,0,0,13.55,25.87Z" transform="translate(-1.75)" fill="#6bb241" fill-rule="evenodd"/><path id="Shape_2_copy_10" data-name="Shape 2 copy 10" d="M79.76,42.24a25.38,25.38,0,0,1-8.12,9A23.51,23.51,0,0,1,65,54.6a29.49,29.49,0,0,1-7.56,1.13,12.21,12.21,0,0,1-6.82-1.61,5.65,5.65,0,0,1-2.4-4.81,16.09,16.09,0,0,1-5.53,4.81,17.38,17.38,0,0,1-7.38,1.45q-6.63,0-10.33-3.21Q21.29,49,21.29,42.73a20.49,20.49,0,0,1,6.09-15.09,19.88,19.88,0,0,1,14.94-6.1,13.86,13.86,0,0,1,5.9,1.12,13.31,13.31,0,0,1,4.24,3.69l2.4-3.69q5.89,0,6,2.57a14.57,14.57,0,0,1-.09,3.21L56.15,45.29a1.55,1.55,0,0,0-.18.81,1.25,1.25,0,0,0-.19.64,2.24,2.24,0,0,0,1.11,2.09,5.76,5.76,0,0,0,3.13.64,11.22,11.22,0,0,0,3.51-.8A13.87,13.87,0,0,0,67,46.58a22,22,0,0,0,5.53-7.06,19.86,19.86,0,0,0,2-8.83q0-9-8.11-14.93a32.13,32.13,0,0,0-15.77-5.54l-.06,4.59-15-8L50.85,0,50.8,3.94a58.49,58.49,0,0,1,9,1.55A41.14,41.14,0,0,1,70.9,10.3a31.3,31.3,0,0,1,8.86,9.15,23.76,23.76,0,0,1,2.95,11.4A23.08,23.08,0,0,1,79.76,42.24ZM47.85,28.6a7.38,7.38,0,0,0-5-1.61q-5.16,0-8.67,4.66a17.89,17.89,0,0,0-3.68,11.24,7.68,7.68,0,0,0,1.84,5.29,6.52,6.52,0,0,0,5,1.77A10.71,10.71,0,0,0,44,47.54,11.12,11.12,0,0,0,48,41.44l2.39-8.19a8.64,8.64,0,0,0-2.58-4.65Z" transform="translate(-1.75)" fill="#02a1db" fill-rule="evenodd"/></svg>